<?xml version="1.0" encoding="utf-8"?>
<!-- Generator: Adobe Illustrator 16.0.0, SVG Export Plug-In . SVG Version: 6.00 Build 0)  -->
<!DOCTYPE svg PUBLIC "-//W3C//DTD SVG 1.1//EN" "http://www.w3.org/Graphics/SVG/1.1/DTD/svg11.dtd">
<svg version="1.1" id="Layer_1" xmlns="http://www.w3.org/2000/svg" xmlns:xlink="http://www.w3.org/1999/xlink" x="0px" y="0px"
	 width="1800px" height="1800px" viewBox="0 0 1800 1800" style="enable-background:new 0 0 1800 1800;" xml:space="preserve">
<style type="text/css">
<![CDATA[
	.st0{fill:#7A6140;}
	.st1{fill:#48484A;}
	.st2{fill:#7C6341;}
	.st3{fill:#7E6442;}
	.st4{fill:#4F4F51;}
	.st5{fill:#808285;}
	.st6{fill:#826844;}
	.st7{fill:#846945;}
	.st8{fill:#856B47;}
	.st9{fill:#8A8C8E;}
	.st10{fill:#8B704A;}
	.st11{fill:#58595B;}
	.st12{fill:#8F734C;}
	.st13{fill:#5C5D60;}
	.st14{fill:#93764F;}
	.st15{fill:#977951;}
	.st16{fill:#616264;}
	.st17{fill:#636466;}
	.st18{fill:#67686B;}
	.st19{fill:#6B6C6F;}
	.st20{fill:#6D6E71;}
	.st21{fill:#A3C5E8;}
	.st22{fill:#765E3D;}
	.st23{fill:#414042;}
	.st24{fill:#434042;}
	.st25{fill:#434345;}
]]>
</style>
<rect x="56" y="79" class="st11" width="1698" height="1651"/>
<polygon class="st4" points="1224.9,354.6 1200,472.8 1150.3,520.1 1160.6,570.6 1083.2,661.5 1094.6,748.3 1008.7,797 
	1063.3,745.3 1054.4,646.3 1116.5,558.6 1112.2,506.3 1177.7,452.9 "/>
<polygon class="st4" points="88,1709 27,1769 27,22 88,86 "/>
<polyline class="st9" points="1785,22 1732,86 86,86 25,22 "/>
<polygon class="st23" points="25,1769 86,1709 1732,1709 1785,1765 "/>
<path class="st23" d="M1785,1765"/>
<polygon class="st5" points="1732,1709 1732,86 1785,22 1785,1765 "/>
<path class="st24" d="M221.8,908.4h-94.2l48.5-157.5l5.1-61.5l29-49.3l149.6-485.4h99.5l138.2,362.6l110.4,398.3l-118.5-7.3
	L538,742.8l-50.5,9.2l-63.5,8.8l-39.5-13.2L273,742.8L221.8,908.4z M296.2,667.5h219.9l-90.9-286L404.1,305l-44.3,221L296.2,667.5z"
	/>
<polygon class="st16" points="126.8,908.4 110,919.3 231.9,930.3 221.4,909 "/>
<path class="st19" d="M687.4,934.3"/>
<polygon class="st18" points="577.6,930.3 519.4,761.2 538,742.8 589.3,908.1 "/>
<polygon class="st18" points="483.5,643.4 477.7,587.7 458.1,554.7 405,369.7 405,305 483.6,553.9 504.3,584.7 519.7,668.2 "/>
<polygon class="st18" points="110,919.3 171.5,713.7 169.5,681.9 192.5,643.4 345.2,179 345.3,132.6 360,154.7 360,187 208.2,647.1 
	183.4,689.1 183.3,727.6 127.6,908.4 "/>
<polygon class="st16" points="322.8,644.1 296.2,668 373,668.2 405.5,686.7 420.8,668.2 519.4,668 483.4,643.2 410.7,643.6 
	399,657.7 374.3,643.9 "/>
<polyline class="st4" points="356.6,517.3 296.2,667.5 322.8,644.2 370.9,533.7 "/>
<polyline class="st1" points="371,533.7 405,369.7 405,305 356.8,517.3 "/>
<polygon class="st17" points="519.4,762.1 538,744 487.5,752 449.1,750.6 422,757.8 391,748.4 273,744 282.5,760.1 390.5,764.2 
	423.5,777.5 452.6,764.7 488.5,768 "/>
<polygon class="st4" points="221.8,908.4 231.9,930.3 288.6,759.6 273,742.8 "/>
<polygon class="st1" points="345.2,133 359.9,155 459.3,155 482.2,133 "/>
<polygon class="st25" points="482.2,132.6 459.3,155.3 554.4,478 597.5,517.3 610.6,610.6 689.4,894.1 712,930.3 744,958.6 
	715.7,887.7 631.5,604.6 618,498 587,464.3 "/>
<polygon class="st20" points="183.4,689.1 169.5,681.9 171.5,713.7 183.3,727.6 "/>
<polygon class="st10" points="1111.2,900 1267.7,780.9 1470.9,801.9 1580,852.9 1671.9,1117 1644.5,1277.7 1595.4,1324 
	1599.4,1542.5 1442.9,1655.3 1211.6,1636.6 1076.1,1470.1 1022.4,1295.8 1071.5,1138.3 1073.8,999.7 "/>
<polygon class="st15" points="1579.9,852.6 1546.1,895.2 1557.3,969.2 1620.5,1105.5 1671.8,1116.4 "/>
<polygon class="st14" points="1671.8,1116.4 1651.5,1279.9 1609.4,1324 1599.4,1542.5 1525.9,1595.5 1562.2,1523.9 1554.9,1462.1 
	1534.7,1370.2 1525.9,1292.4 1568.4,1251.9 1600.1,1167.8 1620.5,1105.5 "/>
<polygon class="st12" points="1651.5,1279.9 1609.4,1324 1568.4,1251.9 "/>
<polygon class="st14" points="1267.7,781.5 1329.9,805.6 1347.1,845.4 1403.9,870.3 1478.6,865.1 1555.9,882.9 1579.9,852.6 
	1470.9,802.2 1371.9,776.8 "/>
<polygon class="st15" points="1207.6,1059.8 1251.1,1082.6 1234.1,1146 1239.8,1218.1 1213.3,1259.1 1137.5,1298.6 1173.9,1196.8 
	1174.9,1013 "/>
<polyline class="st14" points="1137.8,1298.9 1157.4,1407.8 1220.6,1440.9 1240.3,1479.5 1235.1,1542.8 1321.3,1549.4 1383.6,1512 
	1319.7,1479.5 1294.8,1434.9 1277.7,1338.3 1224.8,1330.6 1213.3,1259.1 1137.2,1298.6 "/>
<polygon class="st6" points="1022.3,1295.5 1071.1,1422.2 1131.9,1482 1157.4,1559.3 1220.8,1598.4 1200.4,1622.8 1121.5,1593 
	1092.5,1502.8 1036.4,1434.9 "/>
<polygon class="st0" points="1211.6,1636.6 1200.4,1622.8 1220.8,1598.4 "/>
<polygon class="st3" points="1071.5,1138.3 1022.3,1295.5 1105.6,1155.8 1095.5,1105.5 1073.8,999.7 "/>
<polygon class="st6" points="1533.1,1105.5 1510.5,1152.2 1506.1,1207.2 1459.4,1259.1 1465.6,1404.3 1431.4,1239.4 1468.5,1196.6 
	1482.2,1143.6 1501.7,1112.6 "/>
<polygon class="st2" points="1533.1,1105.5 1505.5,1080.3 1471.9,1013 1388.7,1010.4 1430.3,1042 1454.2,1044.7 1501.7,1112.6 "/>
<polygon class="st22" points="1090.9,1502.8 1121.9,1593.7 1100.5,1499.1 1034.9,1434.9 "/>
<polygon class="st8" points="1388.7,1010.4 1430.3,1042 1454.2,1044.7 1501.7,1112.6 1481.2,1147.6 1468.5,1196.6 1431.4,1239.4 
	1465.1,1401.8 1438.6,1477.2 1383.6,1512 1319.7,1479.5 1294.8,1434.9 1277.7,1338.3 1224.8,1330.6 1210.6,1254.9 1239.8,1218.1 
	1234.1,1146 1251.1,1082.6 1285.5,1048.5 1356.1,1056.7 "/>
<polygon class="st7" points="1356.1,1054.8 1311.6,1008.5 1279.2,1003.8 1265.6,984.5 1269.1,1019.7 1286.6,1046.7 "/>
<polygon class="st21" points="1179,440.5 1112.5,498 1119.5,556.9 1056.6,645.4 1068.9,748.1 1013.7,803.5 1005.2,850 953.6,932.8 
	890.2,987 900.5,1155.9 926,1187.9 806.2,1253.5 784.4,1348.5 715,1380 643.8,1470.5 515,1549.1 606.7,1477.6 615.1,1411.6 
	666.3,1376.9 686.7,1295.3 712.2,1256.9 730.7,1173.1 819.9,1111.6 830.3,952.6 916.4,869.6 931.3,762.1 983.1,728 951.2,647.3 
	1033.4,574.3 1031.3,492.7 1136.1,439.2 1225.6,336.9 "/>
<polygon class="st4" points="953.6,932.8 890.2,987 900,1147.4 926,1187.9 806.2,1253.5 784.4,1348.5 826.9,1271.5 955.8,1202.1 
	918.8,1143.9 910,998.6 "/>
<polygon class="st17" points="1136.1,439.2 1022.8,464.5 1007.6,563.2 921.4,636.5 946.2,725.6 913.3,760.9 916.9,869.6 
	931.5,762.1 983.3,728 951.3,647.4 1033.5,574.3 1031.3,492.7 "/>
<polygon class="st17" points="830.3,952.6 819.9,1111.6 730.7,1173.1 711.9,1256.9 706.9,1171.5 697.5,1129.4 729.1,1144.7 
	788.5,1102.5 "/>
<g>
	
		<image style="overflow:visible;" width="3261" height="5351" xlink:href="BEE211A29B28DEF3.png"  transform="matrix(0.24 0 0 0.24 479.0122 300.8804)">
	</image>
</g>
<polygon class="st16" points="587.3,908.4 577.6,930.3 707.9,935 746.3,961.7 720,927.3 694.6,909 "/>
<polygon class="st23" points="597.5,517.3 618.5,499.7 587,464.3 554.4,478 "/>
<polygon class="st19" points="419.5,668.2 410.7,643.6 399,657.7 405.5,686.7 "/>
<polygon class="st19" points="423.5,777.5 422,757.8 391,748.4 390.5,764.2 "/>
<polygon class="st13" points="374.3,643.9 399,657.7 405.5,686.7 373,668.2 "/>
<polygon class="st19" points="477.7,587.7 504.4,584.7 483.6,554 458,554 "/>
</svg>
