<?xml version="1.0" encoding="utf-8"?>
<!-- Generator: Adobe Illustrator 16.0.0, SVG Export Plug-In . SVG Version: 6.00 Build 0)  -->
<!DOCTYPE svg PUBLIC "-//W3C//DTD SVG 1.1//EN" "http://www.w3.org/Graphics/SVG/1.1/DTD/svg11.dtd">
<svg version="1.1" id="Layer_1" xmlns="http://www.w3.org/2000/svg" xmlns:xlink="http://www.w3.org/1999/xlink" x="0px" y="0px"
	 width="3240px" height="1800px" viewBox="0 0 3240 1800" style="enable-background:new 0 0 3240 1800;" xml:space="preserve">
<style type="text/css">
<![CDATA[
	.st0{fill:#464547;}
	.st1{fill:#7A6140;}
	.st2{fill:#48484A;}
	.st3{fill:#7C6341;}
	.st4{fill:#7E6442;}
	.st5{fill:#4A4B4C;}
	.st6{fill:#4F4F51;}
	.st7{fill:#808285;}
	.st8{fill:#826844;}
	.st9{fill:#846945;}
	.st10{fill:#856B47;}
	.st11{fill:#876C48;}
	.st12{fill:#515254;}
	.st13{fill:#8A8C8E;}
	.st14{fill:#8B704A;}
	.st15{fill:#58595B;}
	.st16{fill:#8F734C;}
	.st17{fill:#5F6062;}
	.st18{fill:#93764F;}
	.st19{fill:#977951;}
	.st20{fill:#616264;}
	.st21{fill:#636466;}
	.st22{fill:#656668;}
	.st23{fill:#67686B;}
	.st24{fill:#6B6C6F;}
	.st25{fill:#6D6E71;}
	.st26{fill:#A3C5E8;}
	.st27{fill:#765E3D;}
	.st28{fill:#414042;}
	.st29{fill:#434042;}
	.st30{fill:#434345;}
]]>
</style>
<rect x="89" y="327" class="st15" width="3054" height="1090"/>
<path class="st29" d="M685.5,1115.2l4.5-173.7l-4.5-226l70.1-11.1l-3.6,98.4c19.1-30.8,42.1-54.9,69.1-72.3
	c27-17.4,53.9-26.1,80.9-26.1c23.6,0,45.1,6.3,64.4,18.8s32.9,28.9,40.6,49.2c7.7,20.3,11.6,60.1,11.6,119.5v223.3l-77.2-0.9
	L937,897c0-38.4-7.8-63.1-11.5-75.4c-3.7-12.3-10.5-22.4-20.4-30.2c-9.9-7.9-50.8-6.1-100.1,34.6c-26.8,22.2-19.9,29.6-37.3,63
	l-6.2,225.3L685.5,1115.2z"/>
<path class="st29" d="M1364.8,1027.8c-19.9,32.8-36.3,55-64.4,71.7c-28,16.6-53.8,25-77.3,25c-32.9,0-62.4-14.2-88.5-42.5
	c-26.2-28.4-39.2-71.4-39.2-129c0-45.5,8.7-86.1,26-121.8c17.4-35.7,30.3-73.7,59.4-94.5c29.1-20.7,75-40,117.9-40
	c12.4,0,54.2,15.4,61.7,16.1l-7.9-171l85.2,4.4v567.4l-71.9,0.8L1364.8,1027.8z M1360.5,950.9V785.9c-23.2-6.1-32.9-16.1-52.9-16.1
	c-40.4,0-74,15.6-100.9,46.8c-26.9,31.2-40.3,73.7-40.3,127.4c0,39,11,64.2,25.7,84.1c14.7,19.8,27.4,16.2,46.1,16.2
	c20.4,0,43.3,7.3,67.9-13.4C1330.9,1010.2,1341,985.9,1360.5,950.9z"/>
<polygon class="st6" points="121,1396 60,1456 60,270 121,334 "/>
<polyline class="st13" points="3174,270 3121,334 119,334 58,270 "/>
<polygon class="st28" points="58,1456 119,1396 3121,1396 3174,1452 "/>
<path class="st28" d="M3174,1452"/>
<polygon class="st7" points="3121,1396 3121,334 3174,270 3174,1452 "/>
<path class="st29" d="M295.9,1106.5h-66.5l34.3-111.2l3.6-43.4l20.5-34.8l105.6-342.6h70.2L639,1111.7l-83.6-5.1L519,989.7H332
	L295.9,1106.5z M348.4,936.5h155.2l-64.1-201.9l-14.9-54l-31.2,156L348.4,936.5z"/>
<polygon class="st6" points="1428,555 1416,711 1428,1106 1461,1137 1445,715.1 1461,536.8 "/>
<polygon class="st20" points="1428,1106.1 1367,1106 1348.5,1125 1461,1137 "/>
<polygon class="st24" points="1348,1125.2 1348.9,1124.6 1367,1106 1368.3,1023.2 1348.5,1067 "/>
<polygon class="st0" points="1461,536.8 1335,529 1366,553 1428,555 "/>
<polygon class="st23" points="1366,553 1366,723 1343,701.7 1335,529 "/>
<path class="st6" d="M1343,701.7c0,0-40.3-36.1-104-20.7c-44,10.7-74,51-74,51l19,21c0,0,28.3-32.3,68-42c53.9-13.1,114,12,114,12
	L1343,701.7z"/>
<polygon class="st22" points="1366,783 1335,799 1339,934.5 1366,944 "/>
<path class="st21" d="M1366,783c0,0-33.7-19.2-74.7-17c-36.6,2-74.7,32.1-74.7,32.1L1235,815c0,0,38-27.6,61-27.6
	c27,0,39,11.6,39,11.6L1366,783z"/>
<path class="st12" d="M1365.8,944.2c0,0,4.5,17.2-41.3,66.8c-37.5,40.7-72.5,43.5-72.5,43.5V1026c0,0,23.3,0.3,57-35
	c28.3-29.7,30-56.5,30-56.5L1365.8,944.2z"/>
<path class="st2" d="M1252,1026v28.5c0,0-100.5,18.6-87-138.8c5.4-63.3,51.6-117.6,51.6-117.6L1235,815c0,0-31.8,40.5-40,104
	C1179,1042.3,1252,1026,1252,1026z"/>
<path class="st0" d="M1368.3,1023.2c0,0-12,34.2-19.8,43.8c-37,45.5-102.3,69-102.3,69l0.3-22.5c0,0,39.6-7.6,86.5-51
	C1353,1044,1368.3,1023.2,1368.3,1023.2z"/>
<path class="st21" d="M1246.5,1113.5l-0.3,22.5c0,0-86.4,18.8-134.6-43C982,926.6,1165,732,1165,732l19,21c0,0-154.4,198-45,321.2
	C1181,1121.5,1246.5,1113.5,1246.5,1113.5z"/>
<polygon class="st20" points="947.8,1106.3 933,1124 1029,1124 1011.6,1106.7 "/>
<polygon class="st20" points="691.8,1106.5 677.7,1122 767.7,1122 755.6,1107 "/>
<polygon class="st20" points="553.8,1106.5 547,1122 658.6,1125.2 629.6,1107 "/>
<polygon class="st20" points="228.8,1106.5 217,1114.3 303,1122 295.6,1107 "/>
<polygon class="st2" points="767.7,1122 770.3,902 756.2,883.4 755.6,1107 "/>
<path class="st12" d="M756.2,883.4c0,0,19.7-57,75.4-89.7c31.8-18.7,55.3-21,55.3-21V796c0,0-23.5,0.7-50.8,17.5
	c-43.8,27-65.9,89.3-65.9,89.3L756.2,883.4z"/>
<path class="st24" d="M887,772.7c0,0,24.9-5.4,41.9,13.1c34.9,37.9,19,320.8,19,320.8l-14.9,17.9c0,0,14.1-267.5-11.2-309.4
	c-14-23.1-34.8-19-34.8-19V772.7z"/>
<polygon class="st24" points="692,1106.5 677.7,1122 687.5,941.5 674.5,708.3 692,723.7 700.5,941.5 "/>
<polygon class="st2" points="692,723.7 674.5,708.3 726.3,701.7 763,688.3 752,715.5 736.3,719.7 "/>
<polygon class="st30" points="763,688.1 763,769.7 752,802.8 752,715 "/>
<path class="st24" d="M674.5,941.5"/>
<path class="st5" d="M1011.6,1107l17.4,17.4c0,0,8.7-270.7-16-379c-12.8-56.2-98-59.4-98-59.4l-1.7,24.7c0,0,70.7,0,79.2,57.3
	C1007.9,871.3,1011.6,1107,1011.6,1107z"/>
<path class="st17" d="M913.3,710.7L915,686c0,0-42-3.7-106.3,37.7c-20.9,13.4-45.7,46-45.7,46l-11,33.1c0,0,44.6-41.7,61-53.8
	C856,717.3,913.3,710.7,913.3,710.7z"/>
<polygon class="st23" points="547,1122 506,1002.7 519,989.7 555.3,1106.3 "/>
<polygon class="st23" points="480.5,919.5 425,726.3 425,680.6 506,937 "/>
<polygon class="st23" points="217,1114.3 260.4,969.1 259,946.7 275.2,919.5 383,559 393.3,574.6 286.2,922.2 268.8,951.8 
	268.7,979 229.4,1106.5 "/>
<polygon class="st20" points="367.1,920.1 348.4,937 506,937 480.5,919.5 "/>
<polyline class="st6" points="391,830.5 348.4,936.5 367.1,920.1 401.1,842.1 "/>
<polyline class="st2" points="401.1,842.1 425,726.3 425,680.6 391,830.5 "/>
<polygon class="st21" points="506,1003 519,990 332,990 338.8,1001.5 "/>
<polygon class="st6" points="295.9,1106.5 303,1122 343,1001.5 332,989.7 "/>
<polygon class="st2" points="383,559 393.3,575 463.5,575 479.7,559 "/>
<polygon class="st30" points="479.7,559 463.5,575 628.4,1106.5 658.6,1125.2 "/>
<path class="st14" d="M2327.8,1051.5l-13.3-27l2.2-57.5l-11.7-52.7l21.3-70l-14.7-54.3l5-61.1h42.3l20.2,10.2l-5.2,44l6.4,29.5
	l32.2-26.8l36.2-43.9l72.2-19.8l39.9,19l42.9,13.8l-2.6,105.6l-40.8,6.7l-62.9-28.7l5.8-29.3l-19-19l-37.2,15l-28.8,36.4l-49.9,58.6
	l11.4,51l-8.4,59.4l8.8,101.4H2334L2327.8,1051.5z"/>
<path class="st14" d="M2968,1096.5l-132.8,25.9l-92.5-25.7l-65.3-73.5L2652.8,921l40.7-80.9l6.1-47l41.6-48l93.2-26.9l99,23.5
	l37.7,127.3l-33.2,54.3l-96,3.2l-49.5-26.5l-56.5,30l2,73.3l43.7,49.5l70.8,15.2l28.5-41.9l60-16l38.8,17.9L2968,1096.5z"/>
<polygon class="st25" points="268.8,951.8 259,946.7 260.4,969.1 268.7,979 "/>
<polygon class="st14" points="1884.1,651.1 1984.6,574.6 2115.1,588.1 2185.1,620.8 2244.1,790.4 2226.5,893.6 2195,923.3 
	2197.6,1063.6 2097.1,1136 1948.6,1124 1861.6,1017.1 1827.1,905.2 1858.6,804.1 1860.1,715.1 "/>
<polygon class="st19" points="2185.1,620.6 2163.3,648 2170.5,695.5 2211.1,783 2244,790 "/>
<polygon class="st18" points="2244,790.1 2231,895 2204,923.3 2197.6,1063.6 2150.3,1097.6 2173.7,1051.7 2169,1012 2156,953 
	2150.3,903 2177.7,877 2198,823 2211.1,783 "/>
<polygon class="st16" points="2231,895 2204,923.3 2177.7,877 "/>
<polygon class="st18" points="1984.6,575 2024.5,590.5 2035.6,616 2072,632 2120,628.7 2169.6,640.1 2185.1,620.6 2115.1,588.3 
	2051.5,572 "/>
<polygon class="st19" points="1946,753.7 1973.9,768.3 1963,809 1966.6,855.3 1949.7,881.7 1901,907 1924.3,841.7 1925,723.7 "/>
<polyline class="st18" points="1901.2,907.2 1913.8,977.1 1954.4,998.4 1967,1023.2 1963.7,1063.8 2019,1068 2059,1044 2018,1023.2 
	2002,994.5 1991,932.5 1957.1,927.5 1949.7,881.7 1900.8,907 "/>
<polygon class="st8" points="1827,905 1858.3,986.3 1897.4,1024.8 1913.8,1074.4 1954.5,1099.5 1941.4,1115.2 1890.8,1096 
	1872.1,1038.1 1836.1,994.5 "/>
<polygon class="st1" points="1948.6,1124 1941.4,1115.2 1954.5,1099.5 "/>
<polygon class="st4" points="1858.6,804.1 1827,905 1880.5,815.3 1874,783 1860.1,715.1 "/>
<polygon class="st8" points="2155,783 2140.5,813 2137.7,848.3 2107.7,881.7 2111.7,974.8 2089.7,869 2113.5,841.5 2122.3,807.5 
	2134.8,787.6 "/>
<polygon class="st3" points="2155,783 2137.3,766.9 2115.7,723.7 2062.3,722 2089,742.3 2104.3,744 2134.8,787.6 "/>
<polygon class="st27" points="1871.1,1038.1 1891,1096.5 1877.2,1035.8 1835.1,994.5 "/>
<polygon class="st10" points="2062.3,722 2089,742.3 2104.3,744 2134.8,787.6 2121.7,810 2113.5,841.5 2089.7,869 2111.3,973.2 
	2094.3,1021.7 2059,1044 2018,1023.2 2002,994.5 1991,932.5 1957.1,927.5 1947.9,878.9 1966.6,855.3 1963,809 1973.9,768.3 
	1996,746.5 2041.4,751.7 "/>
<polygon class="st9" points="2041.4,750.5 2012.8,720.8 1992,717.8 1983.2,705.3 1985.5,727.9 1996.8,745.2 "/>
<polygon class="st18" points="2521,722 2540.6,737.3 2550,758.5 2603.9,754.8 2561,741 "/>
<polygon class="st8" points="2484.5,790 2502,794 2513.8,818.6 2540.7,831.3 2546.3,846.7 2560.6,867 2517,860 2497.7,838.3 
	2497.8,810 "/>
<path class="st15" d="M2492.3,818.6"/>
<path class="st15" d="M2523.5,850.1"/>
<polygon class="st11" points="2601.3,860.3 2588.7,850.1 2584,858.6 2560.6,867 "/>
<polygon class="st8" points="2380,813 2380,821 2397.3,812.7 2417.7,785 2446.9,752.5 2448.8,741.7 2413.3,783 2387.7,804.3 "/>
<polygon class="st19" points="2317,729 2359,729 2379.2,739 2374.2,781.4 2380,811.8 2364.2,779.2 2366.8,756.2 2359.5,752.5 
	2355.8,738.8 "/>
<polygon class="st8" points="2312,790.2 2338,833.7 2338,862 2317,887 2305,914.3 2313,867 2326.3,844.3 "/>
<polygon class="st19" points="2368.6,900 2379.4,948.4 2371.6,1010.4 2380.4,1111.8 2357,1013 2373,950.3 "/>
<polygon class="st8" points="2331.3,1087.5 2337.6,1046.9 2321,1021 2330.5,960.5 2305,914.3 2316.7,967 2314.5,1024.5 
	2326.3,1049.7 "/>
<polygon class="st19" points="2380.4,826.5 2385.7,852.2 2365,886.5 2378,850.1 "/>
<polygon class="st8" points="2881,1026.1 2871,1070 2849,1087.5 2835,1072.3 2781.7,1052.8 2846,1066 "/>
<polygon class="st18" points="2736,930 2737.9,999.6 2781.7,1052.8 2744.4,1032 2718,998 2707,991.4 2726.3,938.3 "/>
<polygon class="st8" points="2842.1,926.5 2938,923.3 2899.7,916.9 2884.3,905.7 2841.2,910.3 2816.3,882.3 2794.3,872.3 2789,885 
	2774.3,895 2744.4,925.6 2768,915 2790.2,904.3 2806.3,910.3 "/>
<polygon class="st18" points="2968.2,1096.5 2980,1061 2980,1028 2941,1010.1 2908.6,1018.7 2938,1022.7 2938,1042 2960,1043 
	2971,1064 "/>
<polygon class="st8" points="2699.7,793.1 2698.3,850.1 2713,872.3 2678,899.4 2669,930 2681,973 2677.3,1023.2 2662,959.3 
	2652.8,921 2661,886.5 2679,869 2689,828.5 "/>
<polygon class="st8" points="2924.3,877.7 2938,818.5 2916.7,799.7 2905.3,769 2874.7,752.3 2851.5,761.9 2831.3,752.3 
	2768.3,769.7 2835.3,773 2856.2,788.3 2882,783.1 2893.3,805.7 2925,826.5 "/>
<polygon class="st18" points="2917,877.7 2897.5,876 2882.9,861.7 2856.2,865.5 2821,843 2781.7,845.3 2760.3,835 2741.7,801.7 
	2751.7,840.3 2775.7,855.7 2816.3,850.1 2846,869 2849,884.5 2881,878 2904.3,889.2 "/>
<polygon class="st10" points="2897.5,876.2 2882.9,861.8 2856.2,865.5 2822.8,844.2 2781.7,845.3 2760.3,835 2741.7,801.7 
	2755.3,785.3 2768.3,769.7 2835.3,773 2856.2,788.3 2882,783.1 2893.3,805.7 2925,826.5 2924.3,878 2917,878 "/>
<polygon class="st26" points="1851.1,483.5 1805,529 1813,572 1771,640.1 1785,715.1 1747,758.5 1743,793.1 1709,856.5 1665,899.4 
	1680.7,1023.2 1701,1045.5 1616,1099.5 1604.5,1170.4 1555,1197 1507,1267 1416,1331 1480,1274 1483,1225 1519,1197 1530.1,1136 
	1547,1106.5 1557,1044 1620,994.5 1620,877 1679,811.8 1684.6,732 1721,704.4 1693.6,646.6 1750.5,588.9 1745,529 1819.6,484.6 
	1880.5,405 "/>
<polygon class="st6" points="1880,405 1869.6,497 1835.1,536.8 1846.6,574.6 1794.1,649.6 1809.1,715.1 1747,758.5 1785,715.1 
	1771,640.1 1812.1,568.6 1805,529 1851.1,483.5 "/>
<polygon class="st6" points="1709,856.5 1665,899.4 1679.9,1016.9 1701,1045.5 1616,1099.5 1604.5,1170.4 1632.1,1111.8 
	1723.6,1054.5 1693.6,1013.5 1680.1,907 "/>
<polygon class="st21" points="1819.6,484.6 1737.4,508.6 1731,582 1671.1,640.1 1693.6,704.4 1671.1,732 1679,811.8 1684.6,732 
	1721,704.4 1693.6,646.6 1750.5,588.9 1745,529 "/>
<polygon class="st21" points="1620,877 1620,994.5 1557,1044 1547,1106.5 1539.1,1044 1530.1,1013.5 1554.1,1023.2 1596.1,989.3 "/>
<g>
	
		<image style="overflow:visible;" width="2236" height="4159" xlink:href="D3D4CCA52A56EFB0.png"  transform="matrix(0.24 0 0 0.24 1380 369)">
	</image>
</g>
</svg>
